<svg width="38" height="38" viewBox="0 0 38 38" fill="none" xmlns="http://www.w3.org/2000/svg">
<path d="M23.8608 1.59912H14.3608V4.76579H23.8608V1.59912ZM17.5275 22.1825H20.6942V12.6825H17.5275V22.1825ZM30.2417 11.7008L32.49 9.45245C31.8092 8.64495 31.065 7.88495 30.2575 7.21995L28.0092 9.46829C25.555 7.50495 22.4675 6.33329 19.1108 6.33329C11.2417 6.33329 4.86084 12.7141 4.86084 20.5833C4.86084 28.4525 11.2258 34.8333 19.1108 34.8333C26.9958 34.8333 33.3608 28.4525 33.3608 20.5833C33.3608 17.2425 32.1892 14.155 30.2417 11.7008ZM19.1108 31.6825C12.9833 31.6825 8.02751 26.7266 8.02751 20.5991C8.02751 14.4716 12.9833 9.51579 19.1108 9.51579C25.2383 9.51579 30.1942 14.4716 30.1942 20.5991C30.1942 26.7266 25.2383 31.6825 19.1108 31.6825Z" fill="#9B9B9B"/>
</svg>
