<svg width="38" height="38" viewBox="0 0 38 38" fill="none" xmlns="http://www.w3.org/2000/svg">
<path d="M19 3.16663C10.26 3.16663 3.16669 10.26 3.16669 19C3.16669 27.74 10.26 34.8333 19 34.8333C27.74 34.8333 34.8334 27.74 34.8334 19C34.8334 10.26 27.74 3.16663 19 3.16663ZM19 31.6666C12.0175 31.6666 6.33335 25.9825 6.33335 19C6.33335 12.0175 12.0175 6.33329 19 6.33329C25.9825 6.33329 31.6667 12.0175 31.6667 19C31.6667 25.9825 25.9825 31.6666 19 31.6666ZM20.4092 17.575C17.5909 16.6408 16.2292 16.055 16.2292 14.5666C16.2292 12.9516 17.9867 12.3658 19.095 12.3658C21.1692 12.3658 21.9292 13.9333 22.1034 14.4875L24.605 13.4266C24.3675 12.73 23.3067 10.4025 20.3934 9.89579V7.91663H17.6225V9.91163C13.5059 10.7983 13.4742 14.4241 13.4742 14.5983C13.4742 18.1925 17.0367 19.2058 18.7784 19.8391C21.28 20.7258 22.3884 21.5333 22.3884 23.0533C22.3884 24.8425 20.7259 25.6025 19.2534 25.6025C16.3717 25.6025 15.5484 22.6416 15.4534 22.2933L12.825 23.3541C13.8225 26.8216 16.435 27.7558 17.6067 28.0408V30.0833H20.3775V28.12C21.2009 27.9775 25.1592 27.1858 25.1592 23.0216C25.175 20.8208 24.2092 18.8891 20.4092 17.575Z" fill="#9B9B9B"/>
</svg>
