<svg width="38" height="38" viewBox="0 0 38 38" fill="none" xmlns="http://www.w3.org/2000/svg">
<path d="M19 3.16663C10.26 3.16663 3.16666 10.26 3.16666 19C3.16666 27.74 10.26 34.8333 19 34.8333C27.74 34.8333 34.8333 27.74 34.8333 19C34.8333 10.26 27.74 3.16663 19 3.16663ZM6.33332 19C6.33332 18.0341 6.45999 17.0841 6.66582 16.1816L14.2342 23.75V25.3333C14.2342 27.075 15.6592 28.5 17.4008 28.5V31.5558C11.1783 30.7641 6.33332 25.4441 6.33332 19ZM28.3258 27.55C27.9142 26.2675 26.7425 25.3333 25.3175 25.3333H23.7342V20.5833C23.7342 19.7125 23.0217 19 22.1508 19H12.6508V15.8333H15.8175C16.6883 15.8333 17.4008 15.1208 17.4008 14.25V11.0833H20.5675C22.3092 11.0833 23.7342 9.65829 23.7342 7.91663V7.26746C28.3733 9.13579 31.6667 13.6958 31.6667 19C31.6667 22.2933 30.3842 25.3016 28.3258 27.55Z" fill="#9B9B9B"/>
</svg>
