<svg width="38" height="38" viewBox="0 0 38 38" fill="none" xmlns="http://www.w3.org/2000/svg">
<path d="M19 3.16663C10.26 3.16663 3.16663 10.26 3.16663 19C3.16663 27.74 10.26 34.8333 19 34.8333C27.74 34.8333 34.8333 27.74 34.8333 19C34.8333 10.26 27.74 3.16663 19 3.16663ZM11.1941 28.9433C11.875 27.5183 16.0233 26.125 19 26.125C21.9766 26.125 26.1408 27.5183 26.8058 28.9433C24.6525 30.6533 21.945 31.6666 19 31.6666C16.055 31.6666 13.3475 30.6533 11.1941 28.9433ZM29.07 26.6475C26.8058 23.8925 21.3116 22.9583 19 22.9583C16.6883 22.9583 11.1941 23.8925 8.92996 26.6475C7.31496 24.5258 6.33329 21.8816 6.33329 19C6.33329 12.0175 12.0175 6.33329 19 6.33329C25.9825 6.33329 31.6666 12.0175 31.6666 19C31.6666 21.8816 30.685 24.5258 29.07 26.6475ZM19 9.49996C15.9283 9.49996 13.4583 11.97 13.4583 15.0416C13.4583 18.1133 15.9283 20.5833 19 20.5833C22.0716 20.5833 24.5416 18.1133 24.5416 15.0416C24.5416 11.97 22.0716 9.49996 19 9.49996ZM19 17.4166C17.6858 17.4166 16.625 16.3558 16.625 15.0416C16.625 13.7275 17.6858 12.6666 19 12.6666C20.3141 12.6666 21.375 13.7275 21.375 15.0416C21.375 16.3558 20.3141 17.4166 19 17.4166Z" fill="#9B9B9B"/>
</svg>
