<svg width="50" height="50" viewBox="0 0 50 50" fill="none" xmlns="http://www.w3.org/2000/svg">
<rect x="0.5" y="0.5" width="49" height="49" fill="white" stroke="#E1E1E1"/>
<path d="M18.575 15.65C18.65 16.7625 18.8375 17.85 19.1375 18.8875L17.6375 20.3875C17.125 18.8875 16.8 17.3 16.6875 15.65H18.575V15.65ZM30.9 30.675C31.9625 30.975 33.05 31.1625 34.15 31.2375V33.1C32.5 32.9875 30.9125 32.6625 29.4 32.1625L30.9 30.675V30.675ZM19.775 13.15H15.4C14.7125 13.15 14.15 13.7125 14.15 14.4C14.15 26.1375 23.6625 35.65 35.4 35.65C36.0875 35.65 36.65 35.0875 36.65 34.4V30.0375C36.65 29.35 36.0875 28.7875 35.4 28.7875C33.85 28.7875 32.3375 28.5375 30.9375 28.075C30.8125 28.025 30.675 28.0125 30.55 28.0125C30.225 28.0125 29.9125 28.1375 29.6625 28.375L26.9125 31.125C23.375 29.3125 20.475 26.425 18.675 22.8875L21.425 20.1375C21.775 19.7875 21.875 19.3 21.7375 18.8625C21.275 17.4625 21.025 15.9625 21.025 14.4C21.025 13.7125 20.4625 13.15 19.775 13.15Z" fill="#6A6A6A"/>
</svg>
