<svg width="166" height="18" viewBox="0 0 166 18" fill="none" xmlns="http://www.w3.org/2000/svg">
<path d="M1.72 5.72L0.52 5.36V5H3.52C4.352 5 5.008 5.176 5.488 5.528C5.984 5.864 6.408 6.368 6.76 7.04L9.616 12.584L12.28 6.08L10.48 5.36V5H14.92V5.36L13 6.08L8.44 17.24H7.72L1.72 5.72ZM20.5609 17.36C19.5689 17.36 18.6809 17.144 17.8969 16.712C17.5129 16.504 17.2009 16.28 16.9609 16.04C16.7049 16.392 16.4249 16.664 16.1209 16.856C15.9769 16.952 15.8169 17.04 15.6409 17.12H15.0409V13.04H16.0009C16.2089 13.712 16.5129 14.336 16.9129 14.912C17.7609 16.144 18.8169 16.76 20.0809 16.76C20.7529 16.76 21.2569 16.6 21.5929 16.28C21.9449 15.944 22.1209 15.464 22.1209 14.84C22.1209 14.312 21.8809 13.872 21.4009 13.52C20.9369 13.152 20.2009 12.704 19.1929 12.176C18.3289 11.744 17.6249 11.36 17.0809 11.024C16.5529 10.672 16.0969 10.24 15.7129 9.728C15.3449 9.2 15.1609 8.584 15.1609 7.88C15.1609 6.92 15.5689 6.144 16.3849 5.552C17.2169 4.944 18.4889 4.64 20.2009 4.64C21.0489 4.64 21.8329 4.864 22.5529 5.312C22.9049 5.52 23.2089 5.736 23.4649 5.96C23.6729 5.672 23.9529 5.4 24.3049 5.144C24.5769 4.984 24.7369 4.896 24.7849 4.88H25.3849V8.96H24.4249C24.1849 8.272 23.8889 7.656 23.5369 7.112C22.7369 5.864 21.7849 5.24 20.6809 5.24C20.2489 5.24 19.8809 5.4 19.5769 5.72C19.2729 6.04 19.1209 6.44 19.1209 6.92C19.1209 7.528 19.3769 8.04 19.8889 8.456C20.4009 8.856 21.1769 9.32 22.2169 9.848C23.0649 10.28 23.7369 10.664 24.2329 11C24.7449 11.32 25.1769 11.72 25.5289 12.2C25.8969 12.68 26.0809 13.24 26.0809 13.88C26.0809 16.2 24.2409 17.36 20.5609 17.36ZM34.3619 17.36C32.3139 17.36 30.7219 16.8 29.5859 15.68C28.4499 14.544 27.8819 12.984 27.8819 11C27.8819 9.704 28.1299 8.576 28.6259 7.616C29.1219 6.656 29.8099 5.92 30.6899 5.408C31.5859 4.896 32.6099 4.64 33.7619 4.64C34.9139 4.64 35.9219 4.856 36.7859 5.288C37.6659 5.72 38.3379 6.304 38.8019 7.04C39.2819 7.76 39.5219 8.56 39.5219 9.44C39.5219 9.84 39.4819 10.184 39.4019 10.472L39.2819 10.88C38.5939 11.024 37.8499 11.144 37.0499 11.24C35.3699 11.48 33.6739 11.6 31.9619 11.6C31.9619 13.456 32.2179 14.784 32.7299 15.584C33.2419 16.368 33.9459 16.76 34.8419 16.76C35.4659 16.76 36.0419 16.616 36.5699 16.328C37.1139 16.024 37.5379 15.632 37.8419 15.152C38.1619 14.656 38.3219 14.152 38.3219 13.64H38.9219C38.9219 14.28 38.7299 14.888 38.3459 15.464C37.9619 16.04 37.4259 16.504 36.7379 16.856C36.0499 17.192 35.2579 17.36 34.3619 17.36ZM31.9619 11C32.9859 11 33.8179 10.96 34.4579 10.88C34.7299 10.864 35.0179 10.824 35.3219 10.76C35.3379 10.68 35.3779 10.504 35.4419 10.232C35.5219 9.832 35.5619 9.408 35.5619 8.96C35.5619 7.632 35.3859 6.664 35.0339 6.056C34.6819 5.432 34.2579 5.12 33.7619 5.12C32.5619 5.12 31.9619 7.08 31.9619 11ZM41.0716 5.72L39.8716 5.36V5H42.8716C43.7036 5 44.3596 5.176 44.8396 5.528C45.3356 5.864 45.7596 6.368 46.1116 7.04L48.9676 12.584L51.6316 6.08L49.8316 5.36V5H54.2716V5.36L52.3516 6.08L47.7916 17.24H47.0716L41.0716 5.72ZM60.6325 17.36C58.6485 17.36 57.0885 16.8 55.9525 15.68C54.8325 14.544 54.2725 12.984 54.2725 11C54.2725 9.016 54.8325 7.464 55.9525 6.344C57.0885 5.208 58.6485 4.64 60.6325 4.64C62.6165 4.64 64.1685 5.208 65.2885 6.344C66.4245 7.464 66.9925 9.016 66.9925 11C66.9925 12.984 66.4245 14.544 65.2885 15.68C64.1685 16.8 62.6165 17.36 60.6325 17.36ZM60.6325 16.88C61.2725 16.88 61.8085 16.432 62.2405 15.536C62.6885 14.64 62.9125 13.128 62.9125 11C62.9125 8.872 62.6885 7.36 62.2405 6.464C61.8085 5.568 61.2725 5.12 60.6325 5.12C59.9925 5.12 59.4485 5.568 59.0005 6.464C58.5685 7.36 58.3525 8.872 58.3525 11C58.3525 13.128 58.5685 14.64 59.0005 15.536C59.4485 16.432 59.9925 16.88 60.6325 16.88ZM68.9209 16.64L70.3609 16.28V0.92L68.9209 0.559999V0.199999H72.0409C73.4809 0.199999 74.2009 0.919999 74.2009 2.36V16.28L75.6409 16.64V17H68.9209V16.64ZM83.4372 17.36C81.4532 17.36 79.8932 16.8 78.7572 15.68C77.6372 14.544 77.0772 12.984 77.0772 11C77.0772 9.016 77.6372 7.464 78.7572 6.344C79.8932 5.208 81.4532 4.64 83.4372 4.64C85.4212 4.64 86.9732 5.208 88.0932 6.344C89.2292 7.464 89.7972 9.016 89.7972 11C89.7972 12.984 89.2292 14.544 88.0932 15.68C86.9732 16.8 85.4212 17.36 83.4372 17.36ZM83.4372 16.88C84.0772 16.88 84.6132 16.432 85.0452 15.536C85.4932 14.64 85.7172 13.128 85.7172 11C85.7172 8.872 85.4932 7.36 85.0452 6.464C84.6132 5.568 84.0772 5.12 83.4372 5.12C82.7972 5.12 82.2532 5.568 81.8052 6.464C81.3732 7.36 81.1572 8.872 81.1572 11C81.1572 13.128 81.3732 14.64 81.8052 15.536C82.2532 16.432 82.7972 16.88 83.4372 16.88ZM96.6456 17.36C95.7016 17.36 94.8616 17.12 94.1256 16.64C93.3896 16.144 92.8056 15.424 92.3736 14.48C91.9416 13.52 91.7256 12.36 91.7256 11C91.7256 8.952 92.1976 7.384 93.1416 6.296C94.1016 5.192 95.3896 4.64 97.0056 4.64C97.7736 4.64 98.4456 4.8 99.0216 5.12C99.2616 5.232 99.5096 5.392 99.7656 5.6V0.92L98.3256 0.559999V0.199999H101.446C102.886 0.199999 103.606 0.919999 103.606 2.36V16.28L105.046 16.64V17H102.886C101.926 17 101.182 16.704 100.654 16.112C100.43 15.872 100.254 15.568 100.126 15.2C99.9176 15.6 99.6536 15.96 99.3336 16.28C98.6136 17 97.7176 17.36 96.6456 17.36ZM97.6056 16.52C98.1976 16.52 98.7336 16.2 99.2136 15.56C99.3896 15.32 99.5736 15 99.7656 14.6V6.32C99.5896 6.144 99.4056 5.984 99.2136 5.84C98.7816 5.52 98.3656 5.36 97.9656 5.36C97.2776 5.36 96.7416 5.76 96.3576 6.56C95.9896 7.36 95.8056 8.84 95.8056 11C95.8056 13.064 95.9736 14.504 96.3096 15.32C96.6616 16.12 97.0936 16.52 97.6056 16.52ZM112.968 17.36C110.984 17.36 109.424 16.8 108.288 15.68C107.168 14.544 106.608 12.984 106.608 11C106.608 9.016 107.168 7.464 108.288 6.344C109.424 5.208 110.984 4.64 112.968 4.64C114.952 4.64 116.504 5.208 117.624 6.344C118.76 7.464 119.328 9.016 119.328 11C119.328 12.984 118.76 14.544 117.624 15.68C116.504 16.8 114.952 17.36 112.968 17.36ZM112.968 16.88C113.608 16.88 114.144 16.432 114.576 15.536C115.024 14.64 115.248 13.128 115.248 11C115.248 8.872 115.024 7.36 114.576 6.464C114.144 5.568 113.608 5.12 112.968 5.12C112.328 5.12 111.784 5.568 111.336 6.464C110.904 7.36 110.688 8.872 110.688 11C110.688 13.128 110.904 14.64 111.336 15.536C111.784 16.432 112.328 16.88 112.968 16.88ZM121.017 5.72L119.817 5.36V5H122.817C123.649 5 124.305 5.176 124.785 5.528C125.281 5.864 125.705 6.368 126.057 7.04L128.913 12.584L131.577 6.08L129.777 5.36V5H134.217V5.36L132.297 6.08L127.737 17.24H127.017L121.017 5.72ZM135.177 17.24C134.697 17.24 134.273 17.064 133.905 16.712C133.553 16.344 133.377 15.92 133.377 15.44C133.377 14.96 133.553 14.544 133.905 14.192C134.273 13.824 134.697 13.64 135.177 13.64C135.657 13.64 136.073 13.824 136.425 14.192C136.793 14.544 136.977 14.96 136.977 15.44C136.977 15.92 136.793 16.344 136.425 16.712C136.073 17.064 135.657 17.24 135.177 17.24ZM139.023 16.64L140.463 16.28V5.72L139.023 5.36V5H141.183C142.127 5 142.871 5.304 143.415 5.912C143.623 6.152 143.799 6.448 143.943 6.8C144.183 6.448 144.479 6.128 144.831 5.84C145.631 5.2 146.527 4.88 147.519 4.88C148.367 4.88 148.999 5.08 149.415 5.48C149.847 5.864 150.062 6.424 150.062 7.16C150.062 7.704 149.895 8.144 149.559 8.48C149.239 8.8 148.807 8.96 148.263 8.96C148.039 8.96 147.815 8.944 147.591 8.912L147.303 8.84V5.48C146.487 5.48 145.743 5.8 145.071 6.44C144.751 6.76 144.495 7.08 144.303 7.4V16.28L145.743 16.64V17H139.023V16.64ZM156.9 17.36C156.004 17.36 155.196 17.176 154.476 16.808C153.772 16.424 153.22 15.928 152.82 15.32C152.42 14.712 152.22 14.072 152.22 13.4V5.72L150.78 5.36V5H153.9C155.34 5 156.06 5.72 156.06 7.16V13.4C156.06 14.408 156.236 15.184 156.588 15.728C156.956 16.256 157.38 16.52 157.86 16.52C158.452 16.52 158.988 16.2 159.468 15.56C159.644 15.32 159.828 15 160.02 14.6V5.72L158.58 5.36V5H165.3V5.36L163.86 5.72V17.12H163.62C162.452 17.12 161.564 16.8 160.956 16.16C160.684 15.872 160.492 15.552 160.38 15.2C160.156 15.6 159.892 15.96 159.588 16.28C158.868 17 157.972 17.36 156.9 17.36Z" fill="white"/>
</svg>
